<svg xmlns="http://www.w3.org/2000/svg" viewBox="0 0 512 512" width="512" height="512">
  <rect width="512" height="512" rx="112" fill="#2563eb"/>
  <g transform="translate(-6.15, 11.58) scale(1.35)">
    <path d="M 131.238 153.750 C 94.851 262.869, 84.043 296.293, 84.874 297.130 C 85.218 297.476, 89.838 298.062, 95.141 298.432 L 104.781 299.105 106.799 293.302 C 107.908 290.111, 111.592 279.850, 114.985 270.500 C 118.378 261.150, 122.732 249, 124.660 243.500 C 126.588 238, 128.495 233.156, 128.897 232.736 C 129.298 232.316, 137.249 233.081, 146.564 234.435 C 155.879 235.790, 172.725 238.066, 184 239.493 C 195.275 240.921, 208.907 242.747, 214.293 243.552 L 224.085 245.015 240.793 236.769 L 257.500 228.523 243.500 227.343 C 235.800 226.694, 228.646 226.127, 227.601 226.082 C 226.266 226.024, 228.858 223.010, 236.344 215.916 C 251.163 201.873, 260.741 186.816, 265.061 170.773 C 266.217 166.479, 265.225 167.053, 297.500 152.024 C 301.350 150.231, 304.050 148.605, 303.500 148.411 C 302.950 148.217, 295.144 146.919, 286.152 145.528 C 277.161 144.136, 269.464 142.787, 269.047 142.529 C 268.631 142.272, 268.041 138.560, 267.736 134.281 C 267.136 125.847, 263.641 114.779, 258.960 106.493 C 249.585 89.898, 226.953 74.678, 202.385 68.446 C 191.203 65.609, 174.187 63, 166.872 63 L 161.500 63 131.238 153.750 M 173.563 91.134 C 170.411 98.514, 161.581 125.915, 162.167 126.500 C 162.510 126.844, 173.076 128.643, 185.646 130.498 C 198.216 132.353, 216.482 135.105, 226.238 136.614 C 235.994 138.123, 244.225 139.109, 244.529 138.805 C 244.833 138.501, 244.377 135.156, 243.516 131.372 C 238.151 107.782, 215.254 91.873, 181.751 88.456 L 175.001 87.767 173.563 91.134 M 151.034 165.147 C 148.180 174.141, 143.855 187.660, 141.422 195.188 C 138.990 202.716, 137 209.494, 137 210.250 C 137 211.289, 143.720 212.560, 164.588 215.467 C 192.131 219.304, 192.184 219.307, 197.838 217.550 C 218.541 211.113, 234.751 194.667, 242.204 172.536 C 243.691 168.120, 244.591 164.208, 244.204 163.843 C 243.817 163.477, 225.050 160.173, 202.500 156.500 C 179.950 152.827, 160.313 149.591, 158.862 149.308 C 156.253 148.801, 156.166 148.977, 151.034 165.147" fill="#ffffff" fill-rule="evenodd"/>
  </g>
</svg>